<svg xmlns="http://www.w3.org/2000/svg" viewBox="0 0 299.87 299.87"><defs><style>.cls-1{fill:#992632;}</style></defs><g id="Livello_2" data-name="Livello 2"><g id="Livello_1-2" data-name="Livello 1"><path class="cls-1" d="M195.24,186.92v-44.8h25.5l25.51-51h-51v-51l-51,25.5V91.1s-25.51,0-25.51,12.75V91.1l-51,25.51v102s0,25.51,25.51,25.51,25.5-25.51,25.5-25.51v-51s0-25.5,25.51-25.5v63.77s0,38.26,38.26,38.26h0c38.26,0,38.26-51,38.26-51s-7.71,7.72-17.14,5.15A11.69,11.69,0,0,1,195.24,186.92Z"/><path class="cls-1" d="M149.94,23a126.93,126.93,0,0,1,89.75,216.69A126.93,126.93,0,1,1,60.18,60.18,126.08,126.08,0,0,1,149.94,23m0-23A149.94,149.94,0,1,0,299.87,149.94,149.94,149.94,0,0,0,149.94,0Z"/></g></g></svg>